<svg width="81px" height="81px" viewBox="0 0 24.00 24.00" fill="none" xmlns="http://www.w3.org/2000/svg"><g id="SVGRepo_bgCarrier" stroke-width="0"></g><g id="SVGRepo_tracerCarrier" stroke-linecap="round" stroke-linejoin="round"></g><g id="SVGRepo_iconCarrier"> <path d="M16 3.25H8C7.04 3.25 6.25 4.04 6.25 5V19C6.25 19.96 7.04 20.75 8 20.75H16C16.96 20.75 17.75 19.96 17.75 19V5C17.75 4.04 16.96 3.25 16 3.25ZM16.25 19C16.25 19.14 16.14 19.25 16 19.25H8C7.86 19.25 7.75 19.14 7.75 19V5C7.75 4.86 7.86 4.75 8 4.75H16C16.14 4.75 16.25 4.86 16.25 5V19ZM13 16C13 16.55 12.55 17 12 17C11.45 17 11 16.55 11 16C11 15.45 11.45 15 12 15C12.55 15 13 15.45 13 16Z" fill="#000000"></path> </g></svg>