<svg fill="#6854FC" version="1.1" id="Layer_1" xmlns="http://www.w3.org/2000/svg" xmlns:xlink="http://www.w3.org/1999/xlink" viewBox="0 0 496 496" xml:space="preserve" stroke="#6854FC"><g id="SVGRepo_bgCarrier" stroke-width="0"></g><g id="SVGRepo_tracerCarrier" stroke-linecap="round" stroke-linejoin="round"></g><g id="SVGRepo_iconCarrier"> <g> <g> <g> <path d="M371.352,192h-128v-64c0-44.112,35.888-80,80-80V32c-52.936,0-96,43.064-96,96v64h-160c-17.648,0-32,14.352-32,32v192 c0,17.648,14.352,32,32,32h88v32h-16v16h160v-16h-16v-32h88c17.648,0,32-14.352,32-32V224C403.352,206.352,389,192,371.352,192z M267.352,480h-96v-32h96V480z M387.352,416c0,8.824-7.176,16-16,16h-304c-8.824,0-16-7.176-16-16v-16h336V416z M387.352,384 h-336V224c0-8.824,7.176-16,16-16h160v16c0,27.936-14.416,52.536-36.176,66.848C182.808,270.432,162.744,256,139.352,256 c-30.88,0-56,25.128-56,56s25.12,56,56,56s56-25.128,56-56c0-1.632-0.104-3.24-0.248-4.84 c28.784-16.592,48.248-47.616,48.248-83.16v-16h128c8.824,0,16,7.176,16,16V384z M147.352,320 c11.136,0,21.792-2.008,31.752-5.512c-1.32,20.88-18.552,37.512-39.752,37.512c-22.056,0-40-17.944-40-40 c0-22.056,17.944-40,40-40c17.232,0,31.816,11.008,37.432,26.32c-9.12,3.624-19.032,5.68-29.432,5.68h-16v16H147.352z"></path> <rect x="291.352" y="224" width="16" height="16"></rect> <rect x="323.352" y="224" width="16" height="16"></rect> <rect x="355.352" y="224" width="16" height="16"></rect> <path d="M304.04,80h36.608l120-40l-120-40H304.04l40,40L304.04,80z M344.976,18.304L410.056,40l-65.08,21.696L366.664,40 L344.976,18.304z"></path> <path d="M275.352,352h80v-80h-80V352z M291.352,288h48v48h-48V288z"></path> </g> </g> </g> </g></svg>